# Blender v2.69 (sub 0) OBJ File: 'maze.blend'
# www.blender.org
o Cylinder
v -3.368581 3.795908 -0.584445
v -3.368581 4.434240 -0.584445
v -2.919573 3.795908 -0.540221
v -2.919573 4.434240 -0.540221
v -2.487820 3.795908 -0.409250
v -2.487820 4.434240 -0.409250
v -2.089914 3.795908 -0.196566
v -2.089914 4.434240 -0.196566
v -1.741147 3.795908 0.089660
v -1.741147 4.434240 0.089660
v -1.454921 3.795908 0.438428
v -1.454921 4.434240 0.438428
v -1.242236 3.795908 0.836333
v -1.242236 4.434240 0.836333
v -1.111265 3.795908 1.268086
v -1.111265 4.434240 1.268086
v -1.067042 3.795908 1.717094
v -1.067042 4.434240 1.717094
v -1.111265 3.795908 2.166102
v -1.111265 4.434240 2.166102
v -1.242236 3.795908 2.597855
v -1.242236 4.434240 2.597855
v -1.454921 3.795908 2.995761
v -1.454921 4.434240 2.995761
v -1.741147 3.795908 3.344528
v -1.741147 4.434240 3.344528
v -2.089915 3.795908 3.630754
v -2.089915 4.434240 3.630754
v -2.487821 3.795908 3.843440
v -2.487821 4.434240 3.843440
v -2.919574 3.795908 3.974410
v -2.919574 4.434240 3.974410
v -3.368582 3.795908 4.018634
v -3.368582 4.434240 4.018634
v -3.817590 3.795908 3.974410
v -3.817590 4.434240 3.974410
v -4.249343 3.795908 3.843439
v -4.249343 4.434240 3.843439
v -4.647249 3.795908 3.630754
v -4.647249 4.434240 3.630754
v -4.996016 3.795908 3.344527
v -4.996016 4.434240 3.344527
v -5.282242 3.795908 2.995760
v -5.282242 4.434240 2.995760
v -5.494927 3.795908 2.597853
v -5.494927 4.434240 2.597853
v -5.625897 3.795908 2.166100
v -5.625897 4.434240 2.166100
v -5.670120 3.795908 1.717092
v -5.670120 4.434240 1.717092
v -5.625896 3.795908 1.268084
v -5.625896 4.434240 1.268084
v -5.494925 3.795908 0.836331
v -5.494925 4.434240 0.836331
v -5.282239 3.795908 0.438425
v -5.282239 4.434240 0.438425
v -4.996013 3.795908 0.089658
v -4.996013 4.434240 0.089658
v -4.647245 3.795908 -0.196567
v -4.647245 4.434240 -0.196567
v -4.249339 3.795908 -0.409252
v -4.249339 4.434240 -0.409252
v -3.817586 3.795908 -0.540222
v -3.817586 4.434240 -0.540222
v -3.370802 3.839025 6.347330
v -3.370802 2.149385 6.347330
v -4.280772 3.839025 6.257706
v -4.280772 2.149385 6.257706
v -5.155773 3.839025 5.992277
v -5.155773 2.149385 5.992277
v -5.962177 3.839025 5.561245
v -5.962177 2.149385 5.561245
v -6.668998 3.839025 4.981173
v -6.668998 2.149385 4.981173
v -7.249070 3.839025 4.274353
v -7.249070 2.149385 4.274353
v -7.680102 3.839025 3.467948
v -7.680102 2.149385 3.467948
v -7.945530 3.839025 2.592947
v -7.945530 2.149385 2.592947
v -8.035154 3.839025 1.682978
v -8.035154 2.149385 1.682978
v -7.945531 3.839025 0.773008
v -7.945531 2.149385 0.773008
v -7.680102 3.839025 -0.101993
v -7.680102 2.149385 -0.101993
v -7.249070 3.839025 -0.908398
v -7.249070 2.149385 -0.908398
v -6.668998 3.839025 -1.615218
v -6.668998 2.149385 -1.615218
v -5.962177 3.839025 -2.195291
v -5.962177 2.149385 -2.195291
v -5.155772 3.839025 -2.626323
v -5.155772 2.149385 -2.626323
v -4.280771 3.839025 -2.891752
v -4.280771 2.149385 -2.891752
v -3.370800 3.839025 -2.981376
v -3.370800 2.149385 -2.981376
v -2.460830 3.839025 -2.891751
v -2.460830 2.149385 -2.891751
v -1.585829 3.839025 -2.626322
v -1.585829 2.149385 -2.626322
v -0.779424 3.839025 -2.195289
v -0.779424 2.149385 -2.195289
v -0.072604 3.839025 -1.615216
v -0.072604 2.149385 -1.615216
v 0.507468 3.839025 -0.908396
v 0.507468 2.149385 -0.908396
v 0.938500 3.839025 -0.101990
v 0.938500 2.149385 -0.101990
v 1.203928 3.839025 0.773011
v 1.203928 2.149385 0.773011
v 1.293551 3.839025 1.682982
v 1.293551 2.149385 1.682982
v 1.203926 3.839025 2.592952
v 1.203926 2.149385 2.592952
v 0.938496 3.839025 3.467953
v 0.938496 2.149385 3.467953
v 0.507463 3.839025 4.274358
v 0.507463 2.149385 4.274358
v -0.072611 3.839025 4.981177
v -0.072611 2.149385 4.981177
v -0.779432 3.839025 5.561249
v -0.779432 2.149385 5.561249
v -1.585838 3.839025 5.992280
v -1.585838 2.149385 5.992280
v -2.460839 3.839025 6.257707
v -2.460839 2.149385 6.257707
vt 0.166213 0.902417
vt 0.166213 0.758747
vt 0.184252 0.902417
vt 0.184252 0.758747
vt 0.201245 0.902417
vt 0.201245 0.758747
vt 0.216538 0.902417
vt 0.216538 0.758747
vt 0.229543 0.902417
vt 0.233405 0.902417
vt 0.233405 0.758747
vt 0.246411 0.902417
vt 0.246411 0.758747
vt 0.261703 0.902417
vt 0.261703 0.758747
vt 0.278696 0.902417
vt 0.278696 0.758747
vt 0.296735 0.902417
vt 0.296735 0.758747
vt 0.315128 0.902417
vt 0.315128 0.758747
vt 0.333167 0.902417
vt 0.333167 0.758747
vt 0.350159 0.902417
vt 0.350159 0.758747
vt 0.365452 0.902417
vt 0.365452 0.758747
vt 0.378458 0.902417
vt 0.114363 1.046087
vt 0.114363 0.902417
vt 0.129656 1.046087
vt 0.129656 0.902417
vt 0.146649 1.046087
vt 0.146649 0.902417
vt 0.164688 1.046087
vt 0.164688 0.902417
vt 0.183080 1.046087
vt 0.183080 0.902417
vt 0.201120 1.046087
vt 0.201120 0.902417
vt 0.218112 1.046087
vt 0.218112 0.902417
vt 0.233405 1.046087
vt 0.259416 1.046087
vt 0.259416 0.902417
vt 0.274709 1.046087
vt 0.274709 0.902417
vt 0.291702 1.046087
vt 0.291701 0.902417
vt 0.309741 1.046087
vt 0.309741 0.902417
vt 0.328133 1.046087
vt 0.328133 0.902417
vt 0.346173 1.046087
vt 0.346172 0.902417
vt 0.363165 1.046087
vt 0.363165 0.902417
vt 0.378458 1.046087
vt 0.084490 0.902417
vt 0.084490 0.758747
vt 0.097496 0.902417
vt 0.097496 0.758747
vt 0.112789 0.902417
vt 0.112789 0.758747
vt 0.129781 0.902417
vt 0.945490 0.191399
vt 0.945490 0.209792
vt 0.941902 0.173360
vt 0.147821 0.902417
vt 0.147821 0.758747
vt 0.129781 0.758747
vt 0.807891 0.767543
vt 0.824883 0.760504
vt 0.792598 0.777761
vt 0.758747 0.128346
vt 0.378458 0.128346
vt 0.758747 0.091788
vt 0.378458 0.091788
vt 0.758747 0.057350
vt 0.378458 0.057350
vt 0.758747 0.026357
vt 0.378458 0.026357
vt 0.758747 0.000000
vt 0.378458 0.378458
vt 0.378458 0.758747
vt 0.352101 0.378458
vt 0.352101 0.758747
vt 0.321108 0.378458
vt 0.321108 0.758747
vt 0.286670 0.378458
vt 0.286670 0.758747
vt 0.250112 0.378458
vt 0.250112 0.758747
vt 0.212837 0.378458
vt 0.212837 0.758747
vt 0.176278 0.378458
vt 0.176278 0.758747
vt 0.141841 0.378458
vt 0.141841 0.758747
vt 0.110848 0.378458
vt 0.110848 0.758747
vt 0.084490 0.378458
vt 1.000000 0.293967
vt 1.000000 0.674256
vt 0.969007 0.293967
vt 0.969007 0.674256
vt 0.934570 0.293967
vt 0.934570 0.674256
vt 0.898011 0.293967
vt 0.898011 0.674256
vt 0.860736 0.293967
vt 0.860736 0.674256
vt 0.824177 0.293967
vt 0.824177 0.674256
vt 0.789740 0.293967
vt 0.789740 0.674256
vt 0.758747 0.293967
vt 0.378458 0.756916
vt 0.758747 0.756916
vt 0.378458 0.787909
vt 0.758747 0.787909
vt 0.378458 0.822346
vt 0.758747 0.822346
vt 0.378458 0.858905
vt 0.758747 0.858905
vt 0.378458 0.896180
vt 0.758747 0.896180
vt 0.378458 0.932738
vt 0.758747 0.932738
vt 0.378458 0.967176
vt 0.758747 0.967176
vt 0.378458 0.998169
vt 0.378458 0.293967
vt 0.758747 0.267610
vt 0.378458 0.267610
vt 0.758747 0.236617
vt 0.378458 0.236617
vt 0.758747 0.202180
vt 0.549049 0.756916
vt 0.512491 0.749644
vt 0.586324 0.756916
vt 0.758747 0.165621
vt 0.378458 0.165621
vt 0.378458 0.202180
vt 0.000000 0.207866
vt 0.000000 0.170592
vt 0.007272 0.244425
vt 0.229543 0.758747
vt 0.941902 0.227831
vt 0.934863 0.244824
vt 0.924645 0.260117
vt 0.911640 0.273122
vt 0.896347 0.283340
vt 0.879354 0.290379
vt 0.861315 0.293967
vt 0.842922 0.293967
vt 0.824883 0.290379
vt 0.807891 0.283341
vt 0.792598 0.273122
vt 0.824883 0.110812
vt 0.792598 0.128069
vt 0.807891 0.117851
vt 0.779592 0.141075
vt 0.779592 0.260117
vt 0.769374 0.244824
vt 0.758747 0.191399
vt 0.762335 0.227831
vt 0.758747 0.209792
vt 0.934863 0.156368
vt 0.769374 0.156368
vt 0.861315 0.107224
vt 0.842922 0.107224
vt 0.879354 0.110812
vt 0.896347 0.117851
vt 0.911640 0.128069
vt 0.762335 0.173360
vt 0.924645 0.141075
vt 0.842922 0.756916
vt 0.861315 0.756916
vt 0.879354 0.760504
vt 0.896347 0.767543
vt 0.911640 0.777761
vt 0.924645 0.790767
vt 0.934863 0.806059
vt 0.941902 0.823052
vt 0.945490 0.841091
vt 0.945490 0.859484
vt 0.941902 0.877523
vt 0.934863 0.894515
vt 0.924645 0.909808
vt 0.879354 0.940071
vt 0.911640 0.922814
vt 0.896347 0.933032
vt 0.824883 0.940071
vt 0.861315 0.943659
vt 0.842922 0.943659
vt 0.807891 0.933032
vt 0.779592 0.790766
vt 0.769374 0.806059
vt 0.762335 0.823052
vt 0.792598 0.922814
vt 0.779592 0.909808
vt 0.769374 0.894515
vt 0.762335 0.877523
vt 0.758747 0.859484
vt 0.758747 0.841091
vt 0.378458 0.000000
vt 0.758747 0.674256
vt 0.758747 0.998169
vt 0.478054 0.735380
vt 0.447061 0.714671
vt 0.420703 0.688314
vt 0.399994 0.657321
vt 0.385730 0.622883
vt 0.378458 0.586325
vt 0.378458 0.549050
vt 0.385730 0.512491
vt 0.399994 0.478054
vt 0.420703 0.447061
vt 0.447060 0.420703
vt 0.478053 0.399994
vt 0.512491 0.385730
vt 0.549049 0.378458
vt 0.657320 0.735379
vt 0.714671 0.688313
vt 0.688313 0.714671
vt 0.735379 0.657320
vt 0.622883 0.749644
vt 0.749644 0.622883
vt 0.586324 0.378458
vt 0.622883 0.385730
vt 0.657320 0.399994
vt 0.688313 0.420703
vt 0.714671 0.447061
vt 0.735379 0.478053
vt 0.749644 0.512491
vt 0.756916 0.549050
vt 0.756916 0.586324
vt 0.007272 0.134033
vt 0.021536 0.099596
vt 0.042245 0.068603
vt 0.068602 0.042245
vt 0.099595 0.021536
vt 0.134033 0.007272
vt 0.170591 0.000000
vt 0.207866 0.000000
vt 0.244425 0.007272
vt 0.278862 0.021536
vt 0.309855 0.042245
vt 0.244425 0.371186
vt 0.309855 0.336213
vt 0.278862 0.356922
vt 0.336213 0.309855
vt 0.356921 0.278863
vt 0.207866 0.378458
vt 0.371186 0.244425
vt 0.170591 0.378458
vt 0.021536 0.278862
vt 0.068602 0.336213
vt 0.042245 0.309855
vt 0.378458 0.170592
vt 0.356921 0.099595
vt 0.371186 0.134033
vt 0.378458 0.207866
vt 0.336213 0.068602
vt 0.099595 0.356921
vt 0.134033 0.371186
vn 0.098017 0.000000 -0.995185
vn 0.290285 0.000000 -0.956940
vn 0.471396 0.000000 -0.881921
vn 0.634394 0.000000 -0.773010
vn 0.773010 0.000000 -0.634394
vn 0.881921 0.000000 -0.471397
vn 0.956940 0.000000 -0.290285
vn 0.995185 0.000000 -0.098017
vn 0.995185 0.000000 0.098017
vn 0.956940 0.000000 0.290285
vn 0.881921 0.000000 0.471396
vn 0.773010 0.000000 0.634394
vn 0.634393 0.000000 0.773010
vn 0.471396 0.000000 0.881921
vn 0.290286 0.000000 0.956940
vn 0.098017 0.000000 0.995185
vn -0.098019 0.000000 0.995185
vn -0.290286 0.000000 0.956940
vn -0.471396 0.000000 0.881921
vn -0.634394 0.000000 0.773010
vn -0.773010 0.000000 0.634394
vn -0.881922 0.000000 0.471396
vn -0.956941 0.000000 0.290284
vn -0.995185 0.000000 0.098016
vn -0.995185 0.000000 -0.098018
vn -0.956940 0.000000 -0.290286
vn -0.881921 0.000000 -0.471398
vn -0.773010 0.000000 -0.634394
vn -0.634392 0.000000 -0.773011
vn -0.471395 0.000000 -0.881922
vn 0.000000 1.000000 0.000000
vn -0.098017 0.000000 -0.995185
vn -0.290283 0.000000 -0.956941
vn 0.000000 -1.000000 0.000000
vn 0.634392 0.000000 -0.773011
vn 0.773010 0.000000 -0.634393
vn 0.881922 0.000000 -0.471396
vn 0.995185 0.000000 0.098016
vn 0.881922 0.000000 0.471396
vn 0.773010 0.000000 0.634393
vn 0.471397 0.000000 0.881921
vn 0.290285 0.000000 0.956940
vn -0.098018 0.000000 0.995185
vn -0.290285 0.000000 0.956940
vn -0.773011 0.000000 0.634393
vn -0.881921 0.000000 -0.471397
vn -0.471396 0.000000 -0.881922
vn 0.000000 -1.000000 0.000006
vn 0.098018 0.000000 -0.995185
vn 0.956940 0.000000 0.290284
vn 0.634394 0.000000 0.773010
vn 0.471396 0.000000 0.881922
vn 0.290283 0.000000 0.956941
vn 0.098019 0.000000 0.995185
vn -0.098017 0.000000 0.995185
vn -0.471398 0.000000 0.881921
vn -0.881921 0.000000 0.471396
vn 0.000000 1.000000 0.000001
vn 0.000000 1.000000 0.000006
vn 0.000000 1.000000 -0.000002
vn -0.098016 0.000000 -0.995185
vn 0.000000 -1.000000 -0.000003
vn 0.000000 -1.000000 0.000004
vn 0.000000 -1.000000 -0.000001
vn 0.000000 -1.000000 -0.000006
vn 0.000000 -1.000000 0.000003
vn 0.471397 0.000000 -0.881921
vn 0.634393 0.000000 -0.773010
vn -0.471397 0.000000 0.881921
vn -0.773009 0.000000 -0.634395
vn -0.634393 0.000000 -0.773011
vn 0.000000 1.000000 -0.000001
vn -0.098015 0.000000 -0.995185
vn 0.000000 -1.000000 -0.000004
vn 0.000000 -1.000000 0.000001
s off
f 1/1/1 2/2/1 3/3/1
f 3/3/2 4/4/2 5/5/2
f 5/5/3 6/6/3 7/7/3
f 7/7/4 8/8/4 9/9/4
f 9/10/5 10/11/5 11/12/5
f 11/12/6 12/13/6 13/14/6
f 13/14/7 14/15/7 15/16/7
f 15/16/8 16/17/8 17/18/8
f 17/18/9 18/19/9 19/20/9
f 19/20/10 20/21/10 21/22/10
f 21/22/11 22/23/11 23/24/11
f 23/24/12 24/25/12 25/26/12
f 25/26/13 26/27/13 27/28/13
f 27/29/14 28/30/14 29/31/14
f 29/31/15 30/32/15 31/33/15
f 31/33/16 32/34/16 33/35/16
f 33/35/17 34/36/17 35/37/17
f 35/37/18 36/38/18 37/39/18
f 37/39/19 38/40/19 39/41/19
f 39/41/20 40/42/20 41/43/20
f 41/44/21 42/45/21 43/46/21
f 43/46/22 44/47/22 45/48/22
f 45/48/23 46/49/23 47/50/23
f 47/50/24 48/51/24 49/52/24
f 49/52/25 50/53/25 51/54/25
f 51/54/26 52/55/26 53/56/26
f 53/56/27 54/57/27 55/58/27
f 55/59/28 56/60/28 57/61/28
f 57/61/29 58/62/29 59/63/29
f 59/63/30 60/64/30 61/65/30
f 4/66/31 2/67/31 6/68/31
f 63/69/32 64/70/32 1/1/32
f 61/65/33 62/71/33 63/69/33
f 1/72/34 3/73/34 63/74/34
f 65/75/1 66/76/1 67/77/1
f 67/77/2 68/78/2 69/79/2
f 69/79/3 70/80/3 71/81/3
f 71/81/35 72/82/35 73/83/35
f 73/84/36 74/85/36 75/86/36
f 75/86/37 76/87/37 77/88/37
f 77/88/7 78/89/7 79/90/7
f 79/90/8 80/91/8 81/92/8
f 81/92/38 82/93/38 83/94/38
f 83/94/10 84/95/10 85/96/10
f 85/96/39 86/97/39 87/98/39
f 87/98/40 88/99/40 89/100/40
f 89/100/13 90/101/13 91/102/13
f 91/103/41 92/104/41 93/105/41
f 93/105/42 94/106/42 95/107/42
f 95/107/16 96/108/16 97/109/16
f 97/109/43 98/110/43 99/111/43
f 99/111/44 100/112/44 101/113/44
f 101/113/19 102/114/19 103/115/19
f 103/115/20 104/116/20 105/117/20
f 105/118/45 106/119/45 107/120/45
f 107/120/22 108/121/22 109/122/22
f 109/122/23 110/123/23 111/124/23
f 111/124/24 112/125/24 113/126/24
f 113/126/25 114/127/25 115/128/25
f 115/128/26 116/129/26 117/130/26
f 117/130/46 118/131/46 119/132/46
f 119/117/28 120/133/28 121/134/28
f 121/134/29 122/135/29 123/136/29
f 123/136/47 124/137/47 125/138/47
f 68/139/31 66/140/31 70/141/31
f 127/142/32 128/143/32 65/75/32
f 125/138/33 126/144/33 127/142/33
f 65/145/48 67/146/48 127/147/48
f 2/2/49 4/4/49 3/3/49
f 4/4/2 6/6/2 5/5/2
f 6/6/3 8/8/3 7/7/3
f 8/8/4 10/148/4 9/9/4
f 10/11/36 12/13/36 11/12/36
f 12/13/37 14/15/37 13/14/37
f 14/15/7 16/17/7 15/16/7
f 16/17/8 18/19/8 17/18/8
f 18/19/9 20/21/9 19/20/9
f 20/21/50 22/23/50 21/22/50
f 22/23/39 24/25/39 23/24/39
f 24/25/40 26/27/40 25/26/40
f 26/27/51 28/85/51 27/28/51
f 28/30/52 30/32/52 29/31/52
f 30/32/53 32/34/53 31/33/53
f 32/34/54 34/36/54 33/35/54
f 34/36/55 36/38/55 35/37/55
f 36/38/18 38/40/18 37/39/18
f 38/40/56 40/42/56 39/41/56
f 40/42/20 42/10/20 41/43/20
f 42/45/45 44/47/45 43/46/45
f 44/47/57 46/49/57 45/48/57
f 46/49/23 48/51/23 47/50/23
f 48/51/24 50/53/24 49/52/24
f 50/53/25 52/55/25 51/54/25
f 52/55/26 54/57/26 53/56/26
f 54/57/27 56/28/27 55/58/27
f 56/60/28 58/62/28 57/61/28
f 58/62/29 60/64/29 59/63/29
f 60/64/30 62/71/30 61/65/30
f 2/67/31 64/149/31 6/68/31
f 64/149/31 62/150/31 6/68/31
f 62/150/31 60/151/31 6/68/31
f 60/151/31 58/152/31 6/68/31
f 58/152/31 56/153/31 6/68/31
f 56/153/31 54/154/31 6/68/31
f 54/154/31 52/155/31 6/68/31
f 52/155/58 50/156/58 6/68/58
f 50/156/31 48/157/31 6/68/31
f 48/157/31 46/158/31 6/68/31
f 46/158/31 44/159/31 6/68/31
f 22/160/59 26/161/59 24/162/59
f 22/160/60 28/163/60 26/161/60
f 44/159/31 42/164/31 40/165/31
f 6/68/31 44/159/31 40/165/31
f 34/166/31 38/167/31 36/168/31
f 34/166/31 40/165/31 38/167/31
f 6/68/31 40/165/31 34/166/31
f 8/169/31 6/68/31 34/166/31
f 22/160/58 30/170/58 28/163/58
f 18/171/31 22/160/31 20/172/31
f 18/171/31 30/170/31 22/160/31
f 16/173/31 30/170/31 18/171/31
f 14/174/31 30/170/31 16/173/31
f 12/175/31 30/170/31 14/174/31
f 12/175/31 32/176/31 30/170/31
f 12/175/31 10/177/31 32/176/31
f 10/177/31 8/169/31 32/176/31
f 8/169/31 34/166/31 32/176/31
f 64/70/61 2/2/61 1/1/61
f 62/71/33 64/70/33 63/69/33
f 3/73/34 5/178/34 63/74/34
f 5/178/34 7/179/34 63/74/34
f 7/179/62 9/180/62 63/74/62
f 9/180/63 11/181/63 63/74/63
f 11/181/34 13/182/34 63/74/34
f 13/182/34 15/183/34 63/74/34
f 15/183/34 17/184/34 63/74/34
f 17/184/34 19/185/34 63/74/34
f 19/185/34 21/186/34 63/74/34
f 21/186/34 23/187/34 63/74/34
f 23/187/64 25/188/64 63/74/64
f 25/188/65 27/189/65 29/190/65
f 63/74/34 25/188/34 29/190/34
f 35/191/34 31/192/34 33/193/34
f 41/194/34 37/195/34 39/196/34
f 43/197/34 37/195/34 41/194/34
f 61/198/34 63/74/34 29/190/34
f 59/199/34 61/198/34 57/200/34
f 61/198/34 29/190/34 57/200/34
f 29/190/34 31/192/34 57/200/34
f 31/192/34 35/191/34 57/200/34
f 35/191/34 37/195/34 57/200/34
f 37/195/34 43/197/34 57/200/34
f 43/197/34 45/201/34 57/200/34
f 45/201/34 47/202/34 57/200/34
f 47/202/34 49/203/34 57/200/34
f 49/203/34 51/204/34 57/200/34
f 51/204/66 53/205/66 55/206/66
f 57/200/34 51/204/34 55/206/34
f 66/76/49 68/78/49 67/77/49
f 68/78/2 70/80/2 69/79/2
f 70/80/67 72/82/67 71/81/67
f 72/82/68 74/207/68 73/83/68
f 74/85/36 76/87/36 75/86/36
f 76/87/37 78/89/37 77/88/37
f 78/89/7 80/91/7 79/90/7
f 80/91/8 82/93/8 81/92/8
f 82/93/38 84/95/38 83/94/38
f 84/95/10 86/97/10 85/96/10
f 86/97/39 88/99/39 87/98/39
f 88/99/40 90/101/40 89/100/40
f 90/101/13 92/60/13 91/102/13
f 92/104/52 94/106/52 93/105/52
f 94/106/42 96/108/42 95/107/42
f 96/108/16 98/110/16 97/109/16
f 98/110/43 100/112/43 99/111/43
f 100/112/44 102/114/44 101/113/44
f 102/114/69 104/116/69 103/115/69
f 104/116/20 106/208/20 105/117/20
f 106/119/45 108/121/45 107/120/45
f 108/121/22 110/123/22 109/122/22
f 110/123/23 112/125/23 111/124/23
f 112/125/24 114/127/24 113/126/24
f 114/127/25 116/129/25 115/128/25
f 116/129/26 118/131/26 117/130/26
f 118/131/27 120/209/27 119/132/27
f 120/133/70 122/135/70 121/134/70
f 122/135/71 124/137/71 123/136/71
f 124/137/30 126/144/30 125/138/30
f 66/140/31 128/210/31 70/141/31
f 128/210/72 126/211/72 70/141/72
f 126/211/31 124/212/31 70/141/31
f 124/212/58 122/213/58 70/141/58
f 122/213/31 120/214/31 70/141/31
f 120/214/31 118/215/31 70/141/31
f 118/215/31 116/216/31 70/141/31
f 116/216/31 114/217/31 70/141/31
f 114/217/31 112/218/31 70/141/31
f 112/218/31 110/219/31 70/141/31
f 110/219/31 108/220/31 70/141/31
f 106/221/31 104/222/31 102/223/31
f 108/220/58 106/221/58 102/223/58
f 70/141/31 108/220/31 102/223/31
f 74/224/72 78/225/72 76/226/72
f 74/224/58 80/227/58 78/225/58
f 74/224/31 72/228/31 80/227/31
f 80/227/72 72/228/72 82/229/72
f 72/228/31 70/141/31 82/229/31
f 70/141/31 102/223/31 82/229/31
f 102/223/31 100/230/31 82/229/31
f 100/230/31 98/231/31 82/229/31
f 98/231/31 96/232/31 82/229/31
f 96/232/31 94/233/31 82/229/31
f 94/233/31 92/234/31 82/229/31
f 92/234/31 90/235/31 82/229/31
f 90/235/31 88/236/31 82/229/31
f 88/236/31 86/237/31 82/229/31
f 86/237/31 84/238/31 82/229/31
f 128/143/73 66/76/73 65/75/73
f 126/144/33 128/143/33 127/142/33
f 67/146/74 69/239/74 127/147/74
f 69/239/34 71/240/34 127/147/34
f 71/240/34 73/241/34 127/147/34
f 73/241/34 75/242/34 127/147/34
f 75/242/34 77/243/34 127/147/34
f 77/243/34 79/244/34 127/147/34
f 79/244/34 81/245/34 127/147/34
f 81/245/34 83/246/34 127/147/34
f 83/246/34 85/247/34 127/147/34
f 85/247/34 87/248/34 127/147/34
f 87/248/34 89/249/34 127/147/34
f 111/250/64 107/251/64 109/252/64
f 111/250/75 105/253/75 107/251/75
f 111/250/64 103/254/64 105/253/64
f 113/255/75 103/254/75 111/250/75
f 113/255/34 101/256/34 103/254/34
f 115/257/34 101/256/34 113/255/34
f 125/258/34 121/259/34 123/260/34
f 97/261/34 93/262/34 95/263/34
f 99/264/34 93/262/34 97/261/34
f 91/265/34 93/262/34 99/264/34
f 89/249/75 91/265/75 99/264/75
f 127/147/34 89/249/34 99/264/34
f 125/258/34 127/147/34 99/264/34
f 121/259/34 125/258/34 99/264/34
f 119/266/34 121/259/34 99/264/34
f 119/266/34 99/264/34 101/256/34
f 117/267/34 119/266/34 101/256/34
f 115/257/34 117/267/34 101/256/34
