# Blender v2.69 (sub 0) OBJ File: ''
# www.blender.org
o Cylinder
v 0.000000 -2.086287 -2.086287
v 0.000000 2.086287 -2.086287
v 0.407014 -2.086287 -2.046200
v 0.407014 2.086287 -2.046200
v 0.798388 -2.086287 -1.927478
v 0.798388 2.086287 -1.927478
v 1.159079 -2.086287 -1.734684
v 1.159079 2.086287 -1.734684
v 1.475228 -2.086287 -1.475228
v 1.475228 2.086287 -1.475228
v 1.734684 -2.086287 -1.159079
v 1.734684 2.086287 -1.159079
v 1.927478 -2.086287 -0.798387
v 1.927478 2.086287 -0.798387
v 2.046200 -2.086287 -0.407014
v 2.046200 2.086287 -0.407014
v 2.086287 -2.086287 -0.000000
v 2.086287 2.086287 -0.000000
v 2.046200 -2.086287 0.407014
v 2.046200 2.086287 0.407014
v 1.927478 -2.086287 0.798387
v 1.927478 2.086287 0.798387
v 1.734684 -2.086287 1.159079
v 1.734684 2.086287 1.159079
v 1.475228 -2.086287 1.475228
v 1.475228 2.086287 1.475228
v 1.159079 -2.086287 1.734684
v 1.159079 2.086287 1.734684
v 0.798387 -2.086287 1.927478
v 0.798387 2.086287 1.927478
v 0.407014 -2.086287 2.046200
v 0.407014 2.086287 2.046200
v -0.000001 -2.086287 2.086287
v -0.000001 2.086287 2.086287
v -0.407015 -2.086287 2.046199
v -0.407015 2.086287 2.046199
v -0.798388 -2.086287 1.927477
v -0.798388 2.086287 1.927477
v -1.159080 -2.086287 1.734684
v -1.159080 2.086287 1.734684
v -1.475229 -2.086287 1.475227
v -1.475229 2.086287 1.475227
v -1.734685 -2.086287 1.159078
v -1.734685 2.086287 1.159078
v -1.927479 -2.086287 0.798386
v -1.927479 2.086287 0.798386
v -2.046200 -2.086287 0.407013
v -2.046200 2.086287 0.407013
v -2.086287 -2.086287 -0.000002
v -2.086287 2.086287 -0.000002
v -2.046199 -2.086287 -0.407017
v -2.046199 2.086287 -0.407017
v -1.927477 -2.086287 -0.798390
v -1.927477 2.086287 -0.798390
v -1.734683 -2.086287 -1.159081
v -1.734683 2.086287 -1.159081
v -1.475226 -2.086287 -1.475230
v -1.475226 2.086287 -1.475230
v -1.159077 -2.086287 -1.734686
v -1.159077 2.086287 -1.734686
v -0.798385 -2.086287 -1.927479
v -0.798385 2.086287 -1.927479
v -0.407011 -2.086287 -2.046200
v -0.407011 2.086287 -2.046200
vt 0.000000 0.000000
vt 1.000000 0.000000
vt 0.000000 1.000000
vt 0.500000 1.000000
vt 0.597545 0.990393
vt 0.402456 0.990393
vt 1.000000 1.000000
vt 0.691342 0.961940
vt 0.777785 0.915735
vt 0.853553 0.853553
vt 0.915735 0.777785
vt 0.961940 0.691342
vt 0.990393 0.597545
vt 1.000000 0.500000
vt 0.990393 0.402455
vt 0.961940 0.308658
vt 0.915735 0.222215
vt 0.853553 0.146447
vt 0.777785 0.084265
vt 0.084266 0.777786
vt 0.009607 0.597546
vt 0.038060 0.691342
vt 0.000000 0.500000
vt 0.222215 0.915735
vt 0.146447 0.853554
vt 0.009607 0.402455
vt 0.691342 0.038060
vt 0.597545 0.009607
vt 0.308659 0.961940
vt 0.500000 0.000000
vt 0.402455 0.009607
vt 0.308658 0.038060
vt 0.222215 0.084265
vt 0.146446 0.146447
vt 0.084265 0.222215
vt 0.038060 0.308659
vn 0.098018 0.000000 -0.995185
vn 0.290284 0.000000 -0.956940
vn 0.471397 0.000000 -0.881921
vn 0.634394 0.000000 -0.773010
vn 0.773011 0.000000 -0.634393
vn 0.881921 0.000000 -0.471397
vn 0.956940 0.000000 -0.290285
vn 0.995185 0.000000 -0.098017
vn 0.995185 0.000000 0.098017
vn 0.956940 0.000000 0.290284
vn 0.881921 0.000000 0.471396
vn 0.773010 0.000000 0.634393
vn 0.634393 0.000000 0.773011
vn 0.471396 0.000000 0.881921
vn 0.290283 0.000000 0.956941
vn 0.098017 0.000000 0.995185
vn -0.098018 0.000000 0.995185
vn -0.290285 0.000000 0.956940
vn -0.471397 0.000000 0.881921
vn -0.634394 0.000000 0.773010
vn -0.773011 0.000000 0.634393
vn -0.881921 0.000000 0.471396
vn -0.956941 0.000000 0.290284
vn -0.995185 0.000000 0.098017
vn -0.995185 0.000000 -0.098018
vn -0.956940 0.000000 -0.290285
vn -0.881921 0.000000 -0.471398
vn -0.773010 0.000000 -0.634394
vn -0.634393 0.000000 -0.773011
vn -0.471395 0.000000 -0.881922
vn -0.098016 0.000000 -0.995185
vn -0.290283 0.000000 -0.956941
vn 0.000000 -1.000000 0.000000
vn 0.098017 0.000000 -0.995185
vn 0.634393 0.000000 -0.773011
vn 0.773010 0.000000 -0.634393
vn 0.881921 0.000000 0.471397
vn 0.773011 0.000000 0.634393
vn 0.634393 0.000000 0.773010
vn 0.471397 0.000000 0.881921
vn 0.290284 0.000000 0.956940
vn 0.098018 0.000000 0.995185
vn -0.290284 0.000000 0.956940
vn -0.881922 0.000000 0.471396
vn -0.956941 0.000000 0.290283
vn -0.773009 0.000000 -0.634394
vn -0.634392 0.000000 -0.773011
vn -0.471396 0.000000 -0.881922
vn 0.000000 -1.000000 0.000002
vn 0.000000 -1.000000 0.000001
vn 0.000000 -1.000000 -0.000001
vn 0.000000 -1.000000 -0.000004
vn 0.000000 -1.000000 0.000007
vn 0.000000 -1.000000 -0.000002
s off
f 1/1/1 2/2/1 3/3/1
f 3/1/2 4/2/2 5/3/2
f 5/1/3 6/2/3 7/3/3
f 7/1/4 8/2/4 9/3/4
f 9/1/5 10/2/5 11/3/5
f 11/1/6 12/2/6 13/3/6
f 13/1/7 14/2/7 15/3/7
f 15/1/8 16/2/8 17/3/8
f 17/1/9 18/2/9 19/3/9
f 19/1/10 20/2/10 21/3/10
f 21/1/11 22/2/11 23/3/11
f 23/1/12 24/2/12 25/3/12
f 25/1/13 26/2/13 27/3/13
f 27/1/14 28/2/14 29/3/14
f 29/1/15 30/2/15 31/3/15
f 31/1/16 32/2/16 33/3/16
f 33/1/17 34/2/17 35/3/17
f 35/1/18 36/2/18 37/3/18
f 37/1/19 38/2/19 39/3/19
f 39/1/20 40/2/20 41/3/20
f 41/1/21 42/2/21 43/3/21
f 43/1/22 44/2/22 45/3/22
f 45/1/23 46/2/23 47/3/23
f 47/1/24 48/2/24 49/3/24
f 49/1/25 50/2/25 51/3/25
f 51/1/26 52/2/26 53/3/26
f 53/1/27 54/2/27 55/3/27
f 55/1/28 56/2/28 57/3/28
f 57/1/29 58/2/29 59/3/29
f 59/1/30 60/2/30 61/3/30
f 63/1/31 64/2/31 1/3/31
f 61/1/32 62/2/32 63/3/32
f 1/4/33 3/5/33 63/6/33
f 2/2/34 4/7/34 3/3/34
f 4/2/2 6/7/2 5/3/2
f 6/2/3 8/7/3 7/3/3
f 8/2/35 10/7/35 9/3/35
f 10/2/36 12/7/36 11/3/36
f 12/2/6 14/7/6 13/3/6
f 14/2/7 16/7/7 15/3/7
f 16/2/8 18/7/8 17/3/8
f 18/2/9 20/7/9 19/3/9
f 20/2/10 22/7/10 21/3/10
f 22/2/37 24/7/37 23/3/37
f 24/2/38 26/7/38 25/3/38
f 26/2/39 28/7/39 27/3/39
f 28/2/40 30/7/40 29/3/40
f 30/2/41 32/7/41 31/3/41
f 32/2/42 34/7/42 33/3/42
f 34/2/17 36/7/17 35/3/17
f 36/2/43 38/7/43 37/3/43
f 38/2/19 40/7/19 39/3/19
f 40/2/20 42/7/20 41/3/20
f 42/2/21 44/7/21 43/3/21
f 44/2/44 46/7/44 45/3/44
f 46/2/45 48/7/45 47/3/45
f 48/2/24 50/7/24 49/3/24
f 50/2/25 52/7/25 51/3/25
f 52/2/26 54/7/26 53/3/26
f 54/2/27 56/7/27 55/3/27
f 56/2/46 58/7/46 57/3/46
f 58/2/47 60/7/47 59/3/47
f 60/2/48 62/7/48 61/3/48
f 64/2/31 2/7/31 1/3/31
f 62/2/32 64/7/32 63/3/32
f 3/5/33 5/8/33 63/6/33
f 5/8/33 7/9/33 63/6/33
f 7/9/33 9/10/33 63/6/33
f 9/10/49 11/11/49 63/6/49
f 11/11/33 13/12/33 63/6/33
f 13/12/33 15/13/33 63/6/33
f 15/13/33 17/14/33 63/6/33
f 17/14/33 19/15/33 63/6/33
f 19/15/33 21/16/33 63/6/33
f 21/16/50 23/17/50 63/6/50
f 23/17/33 25/18/33 63/6/33
f 25/18/33 27/19/33 63/6/33
f 55/20/50 51/21/50 53/22/50
f 55/20/51 49/23/51 51/21/51
f 59/24/52 55/20/52 57/25/52
f 59/24/33 49/23/33 55/20/33
f 59/24/33 47/26/33 49/23/33
f 27/19/53 29/27/53 31/28/53
f 63/6/33 27/19/33 31/28/33
f 61/29/33 63/6/33 59/24/33
f 59/24/33 63/6/33 47/26/33
f 63/6/33 31/28/33 47/26/33
f 31/28/33 33/30/33 47/26/33
f 33/30/33 35/31/33 47/26/33
f 35/31/33 37/32/33 47/26/33
f 37/32/54 39/33/54 47/26/54
f 39/33/33 41/34/33 47/26/33
f 41/34/33 43/35/33 47/26/33
f 43/35/33 45/36/33 47/26/33
